<svg version="1.1" xmlns="http://www.w3.org/2000/svg" viewBox="0 0 814.2593994140625 447.4416198730469" width="814.2593994140625" height="447.4416198730469">
  <!-- svg-source:excalidraw -->
  
  <defs>
    <style class="style-fonts">
      @font-face {
        font-family: "Virgil";
        src: url("https://excalidraw.com/Virgil.woff2");
      }
      @font-face {
        font-family: "Cascadia";
        src: url("https://excalidraw.com/Cascadia.woff2");
      }
    </style>
  </defs>
  <rect x="0" y="0" width="814.2593994140625" height="447.4416198730469" fill="#ffffff"></rect><g stroke-linecap="round" transform="translate(10 10) rotate(0 71.8526611328125 24.804229736328125)"><path d="M12.4 0 M12.4 0 C43.4 -1.34, 76.58 -0.31, 131.3 0 M12.4 0 C53.1 1.17, 94.86 0.76, 131.3 0 M131.3 0 C138.87 1.75, 145.5 2.24, 143.71 12.4 M131.3 0 C141.83 -0.35, 144.68 5.74, 143.71 12.4 M143.71 12.4 C142.95 19.96, 141.57 25.33, 143.71 37.21 M143.71 12.4 C143.53 20.47, 144.19 27.44, 143.71 37.21 M143.71 37.21 C145.3 45.57, 137.96 51.32, 131.3 49.61 M143.71 37.21 C143.52 47.29, 140.64 47.33, 131.3 49.61 M131.3 49.61 C100.76 46.79, 67.81 48.57, 12.4 49.61 M131.3 49.61 C97.97 49.78, 63.77 49.63, 12.4 49.61 M12.4 49.61 C5.79 50.18, -1.05 45.83, 0 37.21 M12.4 49.61 C6.01 49.01, -0.56 47.48, 0 37.21 M0 37.21 C1.45 33.5, -0.98 28.12, 0 12.4 M0 37.21 C0.63 30.31, -0.61 24.7, 0 12.4 M0 12.4 C1.18 5, 5.82 -0.15, 12.4 0 M0 12.4 C-1.92 4.13, 2.66 -1.53, 12.4 0" stroke="#000000" stroke-width="1" fill="none"></path></g><g transform="translate(38.12268829345703 22.304229736328125) rotate(0 43.72997283935547 12.5)"><text x="43.72997283935547" y="0" font-family="Virgil, Segoe UI Emoji" font-size="20px" fill="#000000" text-anchor="middle" style="white-space: pre;" direction="ltr" dominant-baseline="text-before-edge">WeakMap</text></g><g stroke-linecap="round"><g transform="translate(78.0458984375 60.247100830078125) rotate(0 -0.9455207632718157 35.428373725479474)"><path d="M-0.16 0.57 C-0.29 12.41, 0.04 59.32, -0.29 71.03 M-1.71 -0.18 C-1.95 11.33, -1.07 57.85, -0.75 69.35" stroke="#000000" stroke-width="1" fill="none"></path></g><g transform="translate(78.0458984375 60.247100830078125) rotate(0 -0.9455207632718157 35.428373725479474)"><path d="M-10.68 42.98 C-6.54 49.34, -3.16 58.48, 0.91 69.92 M-11.89 41.16 C-8.01 47.24, -5.5 54.46, 0.06 70" stroke="#000000" stroke-width="1" fill="none"></path></g><g transform="translate(78.0458984375 60.247100830078125) rotate(0 -0.9455207632718157 35.428373725479474)"><path d="M9.84 42.52 C7.04 49.01, 3.48 58.3, 0.91 69.92 M8.63 40.7 C7.42 47.06, 4.86 54.4, 0.06 70" stroke="#000000" stroke-width="1" fill="none"></path></g></g><mask></mask><g stroke-linecap="round" transform="translate(11.005615234375 136.58840942382812) rotate(0 74.70602416992188 140.30520629882812)"><path d="M32 0 M32 0 C51.49 -1.1, 69.74 0.06, 117.41 0 M32 0 C51.56 1.01, 71.07 -0.17, 117.41 0 M117.41 0 C137.49 -1.11, 150.58 11.66, 149.41 32 M117.41 0 C139.17 0.93, 150.03 11.49, 149.41 32 M149.41 32 C147.86 77.87, 150.02 122.59, 149.41 248.61 M149.41 32 C148.18 96.22, 148.06 159.41, 149.41 248.61 M149.41 248.61 C150.25 270.08, 137.49 282.24, 117.41 280.61 M149.41 248.61 C151.59 269.88, 140.81 278.8, 117.41 280.61 M117.41 280.61 C96.23 279.07, 73.7 281.95, 32 280.61 M117.41 280.61 C86.91 280.05, 55.89 280.99, 32 280.61 M32 280.61 C9.7 279.6, -0.29 269.51, 0 248.61 M32 280.61 C12.52 279.81, -1.68 268.35, 0 248.61 M0 248.61 C0.54 182.02, -2.58 112.9, 0 32 M0 248.61 C0.25 199.42, 0.85 150.49, 0 32 M0 32 C0.47 11.66, 12.29 1.51, 32 0 M0 32 C2.11 12.35, 8.53 0.46, 32 0" stroke="#000000" stroke-width="1" fill="none"></path></g><g stroke-linecap="round" transform="translate(27.50030517578125 154.11929321289062) rotate(0 54.39300537109375 22.628448486328125)"><path d="M11.31 0 M11.31 0 C33.92 1.17, 53.29 1.7, 97.47 0 M11.31 0 C37.71 -1.66, 63.56 -0.99, 97.47 0 M97.47 0 C106.89 -1.56, 109.34 5.43, 108.79 11.31 M97.47 0 C105.32 1.51, 109.33 2.45, 108.79 11.31 M108.79 11.31 C109.76 16.3, 108.31 22.5, 108.79 33.94 M108.79 11.31 C108.29 17.25, 109.54 21.67, 108.79 33.94 M108.79 33.94 C110.53 40.16, 106.06 44.21, 97.47 45.26 M108.79 33.94 C109.57 41.44, 103.56 44.88, 97.47 45.26 M97.47 45.26 C74.53 46.55, 53.26 45.4, 11.31 45.26 M97.47 45.26 C72.56 45.45, 47.44 44.18, 11.31 45.26 M11.31 45.26 C3.66 44.58, -0.93 42.95, 0 33.94 M11.31 45.26 C2.63 44.37, 0.54 41.56, 0 33.94 M0 33.94 C-1.31 25.61, 0.43 21.84, 0 11.31 M0 33.94 C0.25 27.33, -0.35 19.74, 0 11.31 M0 11.31 C0.21 2.55, 4.1 1.72, 11.31 0 M0 11.31 C1.65 1.56, 4.96 -0.33, 11.31 0" stroke="#000000" stroke-width="1" fill="none"></path></g><g transform="translate(42.32334899902344 164.24774169921875) rotate(0 39.56996154785156 12.5)"><text x="39.56996154785156" y="0" font-family="Virgil, Segoe UI Emoji" font-size="20px" fill="#000000" text-anchor="middle" style="white-space: pre;" direction="ltr" dominant-baseline="text-before-edge">target-1</text></g><g stroke-linecap="round" transform="translate(30.2734375 340.9757995605469) rotate(0 54.39300537109375 22.628448486328125)"><path d="M11.31 0 M11.31 0 C32.04 -0.37, 54.43 -1.52, 97.47 0 M11.31 0 C35.49 0.76, 59.46 -0.51, 97.47 0 M97.47 0 C104.9 -0.68, 107.86 5.24, 108.79 11.31 M97.47 0 C103.88 -0.88, 109.32 3.85, 108.79 11.31 M108.79 11.31 C107.23 16.97, 108.97 27.19, 108.79 33.94 M108.79 11.31 C108.91 18.54, 108.31 24.78, 108.79 33.94 M108.79 33.94 C109 40.26, 105.35 46.97, 97.47 45.26 M108.79 33.94 C110.44 39.27, 106.2 44.92, 97.47 45.26 M97.47 45.26 C68.36 47.49, 40.85 45.95, 11.31 45.26 M97.47 45.26 C63.98 45.4, 30.9 44.75, 11.31 45.26 M11.31 45.26 C3.93 47.15, -0.39 41.59, 0 33.94 M11.31 45.26 C4.67 43.83, 2.28 40.4, 0 33.94 M0 33.94 C1.23 28.89, 0.97 22.26, 0 11.31 M0 33.94 C-0.64 27.16, -1.12 18.44, 0 11.31 M0 11.31 C-0.15 5.56, 3.74 0.75, 11.31 0 M0 11.31 C1.96 4.59, 1.76 -0.99, 11.31 0" stroke="#000000" stroke-width="1" fill="none"></path></g><g transform="translate(41.40648651123047 351.104248046875) rotate(0 43.25995635986328 12.5)"><text x="43.25995635986328" y="0" font-family="Virgil, Segoe UI Emoji" font-size="20px" fill="#000000" text-anchor="middle" style="white-space: pre;" direction="ltr" dominant-baseline="text-before-edge">target-4</text></g><g stroke-linecap="round" transform="translate(29.9822998046875 282.9372863769531) rotate(0 54.39300537109375 22.628448486328125)"><path d="M11.31 0 M11.31 0 C31.7 -0.07, 52.62 -0.42, 97.47 0 M11.31 0 C33.17 0.76, 56.28 0.35, 97.47 0 M97.47 0 C106.48 -0.99, 108.02 4.24, 108.79 11.31 M97.47 0 C105.09 0.21, 107.51 3.14, 108.79 11.31 M108.79 11.31 C110.52 16.6, 108.06 20.89, 108.79 33.94 M108.79 11.31 C108.49 18.63, 108.24 25.89, 108.79 33.94 M108.79 33.94 C110.5 42.92, 103.09 46.29, 97.47 45.26 M108.79 33.94 C108.45 42.4, 105.9 46.56, 97.47 45.26 M97.47 45.26 C71.18 47.8, 44.96 45.39, 11.31 45.26 M97.47 45.26 C73.4 45.29, 50.69 45.02, 11.31 45.26 M11.31 45.26 C3.88 46.04, -1.24 43.47, 0 33.94 M11.31 45.26 C2.69 45.11, 1.51 39.24, 0 33.94 M0 33.94 C1.42 26.4, 1.64 18.81, 0 11.31 M0 33.94 C-0.31 28.07, 0.68 22.32, 0 11.31 M0 11.31 C0.75 5.48, 4.48 -1.75, 11.31 0 M0 11.31 C-0.99 5.31, 3.16 -0.24, 11.31 0" stroke="#000000" stroke-width="1" fill="none"></path></g><g transform="translate(40.705345153808594 293.06573486328125) rotate(0 43.669960021972656 12.5)"><text x="43.669960021972656" y="0" font-family="Virgil, Segoe UI Emoji" font-size="20px" fill="#000000" text-anchor="middle" style="white-space: pre;" direction="ltr" dominant-baseline="text-before-edge">target-3</text></g><g stroke-linecap="round" transform="translate(30.1004638671875 219.06320190429688) rotate(0 54.39300537109375 22.628448486328125)"><path d="M11.31 0 M11.31 0 C33.52 -0.37, 58.01 -1.52, 97.47 0 M11.31 0 C29.87 1.02, 48.86 -0.09, 97.47 0 M97.47 0 C105.48 0.06, 108.97 2.66, 108.79 11.31 M97.47 0 C104.38 -1.65, 107.24 4.12, 108.79 11.31 M108.79 11.31 C108.04 20.61, 109.42 28.33, 108.79 33.94 M108.79 11.31 C108.98 18.13, 109.53 22.27, 108.79 33.94 M108.79 33.94 C109.82 41.2, 105.81 46.03, 97.47 45.26 M108.79 33.94 C110.09 41.66, 107.02 47.45, 97.47 45.26 M97.47 45.26 C70.07 45, 44.93 45.36, 11.31 45.26 M97.47 45.26 C73.23 46.13, 49.78 45.45, 11.31 45.26 M11.31 45.26 C5.75 44.32, -0.13 42.8, 0 33.94 M11.31 45.26 C1.53 46.85, 1.82 42.78, 0 33.94 M0 33.94 C1.48 24.47, 1.75 14.91, 0 11.31 M0 33.94 C0 27.76, 0.87 21.17, 0 11.31 M0 11.31 C-1.75 2.91, 5.11 -0.53, 11.31 0 M0 11.31 C-0.24 5.45, 3.91 1.95, 11.31 0" stroke="#000000" stroke-width="1" fill="none"></path></g><g transform="translate(40.513511657714844 229.191650390625) rotate(0 43.979957580566406 12.5)"><text x="43.979957580566406" y="0" font-family="Virgil, Segoe UI Emoji" font-size="20px" fill="#000000" text-anchor="middle" style="white-space: pre;" direction="ltr" dominant-baseline="text-before-edge">target-2</text></g><g stroke-linecap="round"><g transform="translate(142.20611572265625 174.84652709960938) rotate(0 78.07066217251122 -1.5009600419551106)"><path d="M-0.7 -0.28 C25.6 -0.91, 130.8 -2.66, 156.84 -2.72 M1.14 -1.48 C27.44 -1.49, 130.78 -1.62, 156.34 -1.8" stroke="#000000" stroke-width="1" fill="none"></path></g><g transform="translate(142.20611572265625 174.84652709960938) rotate(0 78.07066217251122 -1.5009600419551106)"><path d="M127.72 10.01 C132.34 5.72, 141.96 3.99, 154.38 -2.26 M128.52 7.91 C133.89 5.38, 141.33 4.04, 157.16 -2.72" stroke="#000000" stroke-width="1" fill="none"></path></g><g transform="translate(142.20611572265625 174.84652709960938) rotate(0 78.07066217251122 -1.5009600419551106)"><path d="M127.65 -10.52 C132.46 -10.28, 142.1 -7.5, 154.38 -2.26 M128.44 -12.61 C133.87 -10.59, 141.34 -7.37, 157.16 -2.72" stroke="#000000" stroke-width="1" fill="none"></path></g></g><mask></mask><g transform="translate(186.14794921875 152.53860473632812) rotate(0 25.679977416992188 12.5)"><text x="0" y="0" font-family="Virgil, Segoe UI Emoji" font-size="20px" fill="#000000" text-anchor="start" style="white-space: pre;" direction="ltr" dominant-baseline="text-before-edge">value</text></g><g stroke-linecap="round" transform="translate(297.93505859375 134.37973022460938) rotate(0 82.7564697265625 27.83758544921875)"><path d="M13.92 0 M13.92 0 C56.63 1.2, 101.23 -0.75, 151.59 0 M13.92 0 C60.5 -1.83, 108.12 -2.25, 151.59 0 M151.59 0 C161.62 1.1, 164.47 6.08, 165.51 13.92 M151.59 0 C158.81 -1, 165.29 5.71, 165.51 13.92 M165.51 13.92 C163.88 20.03, 167.14 28.66, 165.51 41.76 M165.51 13.92 C165.96 20.63, 166.62 26.97, 165.51 41.76 M165.51 41.76 C165.3 51.96, 160.64 56.07, 151.59 55.68 M165.51 41.76 C164.21 50.78, 160.75 57.42, 151.59 55.68 M151.59 55.68 C110.2 57.09, 66.41 56.76, 13.92 55.68 M151.59 55.68 C115.24 53.44, 78.73 54.06, 13.92 55.68 M13.92 55.68 C5.83 56.55, -1.04 52.25, 0 41.76 M13.92 55.68 C3.12 56.85, 0.81 50.24, 0 41.76 M0 41.76 C0.17 34.99, 0.84 28.94, 0 13.92 M0 41.76 C0.66 33.75, -0.13 28.59, 0 13.92 M0 13.92 C0.64 4.81, 6.52 -0.63, 13.92 0 M0 13.92 C-0.77 3.31, 5.77 1.34, 13.92 0" stroke="#000000" stroke-width="1" fill="none"></path></g><g transform="translate(361.4315414428711 149.71731567382812) rotate(0 19.259986877441406 12.5)"><text x="19.259986877441406" y="0" font-family="Virgil, Segoe UI Emoji" font-size="20px" fill="#000000" text-anchor="middle" style="white-space: pre;" direction="ltr" dominant-baseline="text-before-edge">Map</text></g><g stroke-linecap="round"><g transform="translate(375.2768998674387 192.63259887695312) rotate(0 0.9568314473161763 19.621037756577124)"><path d="M-0.85 0.86 C-0.65 7.07, 0.01 31.3, 0.64 37.48 M0.91 0.27 C1.51 6.65, 2.45 33.05, 2.76 38.97" stroke="#000000" stroke-width="1" fill="none"></path></g><g transform="translate(375.2768998674387 192.63259887695312) rotate(0 0.9568314473161763 19.621037756577124)"><path d="M-3.08 19.84 C-2.71 27.88, -0.14 30.63, 4.52 38.38 M-3.88 21.41 C-2.35 25.89, -0.05 30.95, 2.06 39.41" stroke="#000000" stroke-width="1" fill="none"></path></g><g transform="translate(375.2768998674387 192.63259887695312) rotate(0 0.9568314473161763 19.621037756577124)"><path d="M9.78 19.28 C6.88 27.37, 6.18 30.27, 4.52 38.38 M8.97 20.85 C7.07 25.54, 5.95 30.76, 2.06 39.41" stroke="#000000" stroke-width="1" fill="none"></path></g></g><mask></mask><g stroke-linecap="round" transform="translate(304.028076171875 227.17767333984375) rotate(0 84.74383544921875 105.13197326660156)"><path d="M32 0 M32 0 C72.13 -1.88, 113.41 -0.48, 137.49 0 M32 0 C54.86 1.22, 76.98 1.69, 137.49 0 M137.49 0 C160.45 -1.02, 169.28 10.14, 169.49 32 M137.49 0 C160.03 -2.08, 170.17 12.87, 169.49 32 M169.49 32 C168.69 88.51, 171.22 142.64, 169.49 178.26 M169.49 32 C169.39 71, 168.59 109.2, 169.49 178.26 M169.49 178.26 C171.21 200.98, 157.64 209.56, 137.49 210.26 M169.49 178.26 C171.09 198.56, 157.13 209.07, 137.49 210.26 M137.49 210.26 C115.15 209.77, 93.78 212.59, 32 210.26 M137.49 210.26 C111.37 209.5, 85.19 209.57, 32 210.26 M32 210.26 C10.96 210.39, -0.33 200.85, 0 178.26 M32 210.26 C11.37 210.23, -1.07 199.56, 0 178.26 M0 178.26 C1.66 146.42, -1.39 111.58, 0 32 M0 178.26 C-0.72 142.82, 0.16 106.08, 0 32 M0 32 C-0.58 9.21, 11.57 0.78, 32 0 M0 32 C-2.2 11.9, 11.46 0.74, 32 0" stroke="#000000" stroke-width="1" fill="none"></path></g><g stroke-linecap="round" transform="translate(320.91168212890625 241.42486572265625) rotate(0 63.297210693359375 19.5126953125)"><path d="M9.76 0 M9.76 0 C33.35 2.29, 57.7 -0.17, 116.84 0 M9.76 0 C41.31 0.5, 71.64 -0.13, 116.84 0 M116.84 0 C123.07 -1.25, 126.89 3.37, 126.59 9.76 M116.84 0 C122.96 1.44, 127.3 3.22, 126.59 9.76 M126.59 9.76 C125.95 13.48, 127.74 21.26, 126.59 29.27 M126.59 9.76 C127.15 14.24, 126.7 18.23, 126.59 29.27 M126.59 29.27 C128.49 34.92, 122.76 37.57, 116.84 39.03 M126.59 29.27 C127.63 36.68, 121.14 40.26, 116.84 39.03 M116.84 39.03 C82.38 39.11, 43.44 38.76, 9.76 39.03 M116.84 39.03 C74.91 39.52, 31.05 38.9, 9.76 39.03 M9.76 39.03 C2.18 38.36, 1.75 36.71, 0 29.27 M9.76 39.03 C2.22 38.86, -1.59 36.58, 0 29.27 M0 29.27 C0.4 22.02, -1.98 16.64, 0 9.76 M0 29.27 C0.67 22.38, 0.27 13.83, 0 9.76 M0 9.76 C0.8 4.45, 3.59 -0.25, 9.76 0 M0 9.76 C0.78 3.4, 1.32 -1.79, 9.76 0" stroke="#000000" stroke-width="1" fill="none"></path></g><g transform="translate(366.46891021728516 248.43756103515625) rotate(0 17.73998260498047 12.5)"><text x="17.73998260498047" y="0" font-family="Virgil, Segoe UI Emoji" font-size="20px" fill="#000000" text-anchor="middle" style="white-space: pre;" direction="ltr" dominant-baseline="text-before-edge">key1</text></g><g stroke-linecap="round" transform="translate(328.0334777832031 385.3369140625) rotate(0 63.297210693359375 19.5126953125)"><path d="M9.76 0 M9.76 0 C37.63 2.33, 67.78 -0.32, 116.84 0 M9.76 0 C41.48 -0.2, 73.05 -0.16, 116.84 0 M116.84 0 C122.67 -2, 127.18 5.22, 126.59 9.76 M116.84 0 C124.49 -0.29, 128.4 5.32, 126.59 9.76 M126.59 9.76 C127.79 16.67, 126.37 23.58, 126.59 29.27 M126.59 9.76 C126.12 15.37, 126.43 20.77, 126.59 29.27 M126.59 29.27 C127.46 33.78, 122.85 39.21, 116.84 39.03 M126.59 29.27 C127.61 36.33, 125.32 39, 116.84 39.03 M116.84 39.03 C79.92 37.61, 42.92 38.86, 9.76 39.03 M116.84 39.03 C95.2 39.99, 73.23 38.88, 9.76 39.03 M9.76 39.03 C3.87 39.84, -1.18 35.25, 0 29.27 M9.76 39.03 C2.06 40.95, 0.53 34.81, 0 29.27 M0 29.27 C-0.39 22.98, -1.77 19.66, 0 9.76 M0 29.27 C-0.6 25.17, -0.04 20.4, 0 9.76 M0 9.76 C0.19 2.59, 3.15 -1.47, 9.76 0 M0 9.76 C-1.43 1.51, 2.96 -0.33, 9.76 0" stroke="#000000" stroke-width="1" fill="none"></path></g><g stroke-linecap="round" transform="translate(324.7845764160156 337.32763671875) rotate(0 63.297210693359375 19.5126953125)"><path d="M9.76 0 M9.76 0 C37.4 -0.65, 65.46 0.2, 116.84 0 M9.76 0 C46.18 -0.98, 81.17 -0.36, 116.84 0 M116.84 0 C125.31 0.99, 126.34 4.82, 126.59 9.76 M116.84 0 C125.41 0.86, 126.83 4.18, 126.59 9.76 M126.59 9.76 C127.29 16.9, 124.99 22.29, 126.59 29.27 M126.59 9.76 C125.59 15.42, 125.55 20, 126.59 29.27 M126.59 29.27 C126.78 36.66, 123.83 40.74, 116.84 39.03 M126.59 29.27 C126.57 36.89, 125.12 39.36, 116.84 39.03 M116.84 39.03 C82.2 37.56, 48.55 39.75, 9.76 39.03 M116.84 39.03 C78.38 40.19, 40.98 39.29, 9.76 39.03 M9.76 39.03 C2.73 37.99, 1.67 36.23, 0 29.27 M9.76 39.03 C2.29 38.73, -0.34 36.62, 0 29.27 M0 29.27 C1.66 22.42, 0.81 16.49, 0 9.76 M0 29.27 C-0.06 24.55, -0.39 19.6, 0 9.76 M0 9.76 C-1.47 2, 1.74 -0.25, 9.76 0 M0 9.76 C-0.33 2.94, 1.97 2.15, 9.76 0" stroke="#000000" stroke-width="1" fill="none"></path></g><g transform="translate(370.34180450439453 344.34033203125) rotate(0 17.73998260498047 12.5)"><text x="17.73998260498047" y="0" font-family="Virgil, Segoe UI Emoji" font-size="20px" fill="#000000" text-anchor="middle" style="white-space: pre;" direction="ltr" dominant-baseline="text-before-edge">key1</text></g><g stroke-linecap="round" transform="translate(323.8209533691406 291.41607666015625) rotate(0 63.297210693359375 19.5126953125)"><path d="M9.76 0 M9.76 0 C37.77 1.5, 64.72 1.95, 116.84 0 M9.76 0 C44.53 2.05, 79.21 0.94, 116.84 0 M116.84 0 C124.91 1.8, 127.34 3.46, 126.59 9.76 M116.84 0 C124.27 1.38, 126.98 2.97, 126.59 9.76 M126.59 9.76 C125.09 15.66, 125.88 22.79, 126.59 29.27 M126.59 9.76 C126.44 13.84, 127.11 17.97, 126.59 29.27 M126.59 29.27 C128.31 35.75, 124.31 40.57, 116.84 39.03 M126.59 29.27 C126.93 36.24, 121.53 39.87, 116.84 39.03 M116.84 39.03 C86.75 40.33, 57.56 40.8, 9.76 39.03 M116.84 39.03 C87.64 39.2, 59.11 40.3, 9.76 39.03 M9.76 39.03 C3.71 38.19, -0.26 35.47, 0 29.27 M9.76 39.03 C4.1 38.53, -0.81 33.66, 0 29.27 M0 29.27 C-1.78 20.78, 0.83 14.44, 0 9.76 M0 29.27 C-0.07 22.68, -0.63 16.79, 0 9.76 M0 9.76 C-0.25 2.96, 2.98 -1.11, 9.76 0 M0 9.76 C2.15 2.58, 0.99 0.01, 9.76 0" stroke="#000000" stroke-width="1" fill="none"></path></g><g transform="translate(369.37818145751953 298.42877197265625) rotate(0 17.73998260498047 12.5)"><text x="17.73998260498047" y="0" font-family="Virgil, Segoe UI Emoji" font-size="20px" fill="#000000" text-anchor="middle" style="white-space: pre;" direction="ltr" dominant-baseline="text-before-edge">key1</text></g><g transform="translate(374.1766357421875 393.1322326660156) rotate(0 17.73998260498047 12.5)"><text x="0" y="0" font-family="Virgil, Segoe UI Emoji" font-size="20px" fill="#000000" text-anchor="start" style="white-space: pre;" direction="ltr" dominant-baseline="text-before-edge">key1</text></g><g stroke-linecap="round"><g transform="translate(451.44384765625 262.3426208496094) rotate(0 77.22783325500791 0.22614900576888886)"><path d="M-0.99 0.13 C24.78 0.46, 129.54 1.31, 155.45 1.31 M0.69 -0.85 C26.27 -0.81, 129.27 -0.84, 154.73 -0.52" stroke="#000000" stroke-width="1" fill="none"></path></g><g transform="translate(451.44384765625 262.3426208496094) rotate(0 77.22783325500791 0.22614900576888886)"><path d="M126.7 10.33 C137.84 5.23, 146.16 3.29, 154.43 0.31 M126.69 9.39 C134.28 7.46, 139.97 4.1, 154.53 -0.71" stroke="#000000" stroke-width="1" fill="none"></path></g><g transform="translate(451.44384765625 262.3426208496094) rotate(0 77.22783325500791 0.22614900576888886)"><path d="M126.8 -10.19 C137.79 -7.76, 146.07 -2.17, 154.43 0.31 M126.8 -11.13 C134.53 -7.85, 140.19 -6.02, 154.53 -0.71" stroke="#000000" stroke-width="1" fill="none"></path></g></g><mask></mask><g transform="translate(529.14794921875 240.53860473632812) rotate(0 25.679977416992188 12.5)"><text x="0" y="0" font-family="Virgil, Segoe UI Emoji" font-size="20px" fill="#000000" text-anchor="start" style="white-space: pre;" direction="ltr" dominant-baseline="text-before-edge">value</text></g><g stroke-linecap="round" transform="translate(606.001220703125 223.67404174804688) rotate(0 99.12908935546875 97.13644409179688)"><path d="M32 0 M32 0 C68.46 0.06, 102.54 1.7, 166.26 0 M32 0 C82.7 -0.84, 131.73 0.94, 166.26 0 M166.26 0 C188.05 -0.07, 198.28 11.62, 198.26 32 M166.26 0 C187.25 -0.06, 198.97 12.79, 198.26 32 M198.26 32 C199.61 82.51, 197.62 130.7, 198.26 162.27 M198.26 32 C199.47 79.47, 198.46 127.61, 198.26 162.27 M198.26 162.27 C196.64 183.09, 187.4 192.36, 166.26 194.27 M198.26 162.27 C199.85 181.33, 189.18 194.75, 166.26 194.27 M166.26 194.27 C135.2 193.19, 102.24 193.27, 32 194.27 M166.26 194.27 C128.18 195.91, 88.94 195.11, 32 194.27 M32 194.27 C12.62 196, 1.47 185.54, 0 162.27 M32 194.27 C9.09 193.31, 2.08 184.5, 0 162.27 M0 162.27 C1.31 118.67, 1.79 75.62, 0 32 M0 162.27 C-1.08 111.49, -0.33 62.39, 0 32 M0 32 C1.21 11.08, 11.45 1.12, 32 0 M0 32 C1.47 10.12, 10.78 1.5, 32 0" stroke="#000000" stroke-width="1" fill="none"></path></g><g transform="translate(689.918212890625 194.09475708007812) rotate(0 17.199981689453125 12.5)"><text x="0" y="0" font-family="Virgil, Segoe UI Emoji" font-size="20px" fill="#000000" text-anchor="start" style="white-space: pre;" direction="ltr" dominant-baseline="text-before-edge">Set</text></g><g stroke-linecap="round" transform="translate(631.2725830078125 244.68130493164062) rotate(0 76.01300048828125 22.88037109375)"><path d="M11.44 0 M11.44 0 C64.48 1.32, 114.65 -0.64, 140.59 0 M11.44 0 C44.15 0.39, 76.67 0.38, 140.59 0 M140.59 0 C147.04 -0.65, 150.36 4.67, 152.03 11.44 M140.59 0 C148.25 1.39, 152.5 4.72, 152.03 11.44 M152.03 11.44 C152.27 20.89, 151.02 26.71, 152.03 34.32 M152.03 11.44 C152.01 19.46, 152.8 28.88, 152.03 34.32 M152.03 34.32 C150.89 40.5, 147.61 44.95, 140.59 45.76 M152.03 34.32 C150.32 42.55, 148.8 47.26, 140.59 45.76 M140.59 45.76 C94.4 43.75, 49.92 43.63, 11.44 45.76 M140.59 45.76 C110.42 46.45, 82.47 45.4, 11.44 45.76 M11.44 45.76 C5.23 44.03, 1.52 43.73, 0 34.32 M11.44 45.76 C4.72 46.22, 1.57 39.8, 0 34.32 M0 34.32 C-1.91 25.38, 0.73 18.1, 0 11.44 M0 34.32 C-0.71 28.9, 0.6 24.56, 0 11.44 M0 11.44 C0.93 5.62, 4.43 1.39, 11.44 0 M0 11.44 C1.05 5.31, 5.99 -0.24, 11.44 0" stroke="#000000" stroke-width="1" fill="none"></path></g><g transform="translate(673.2456207275391 255.06167602539062) rotate(0 34.03996276855469 12.5)"><text x="34.03996276855469" y="0" font-family="Virgil, Segoe UI Emoji" font-size="20px" fill="#000000" text-anchor="middle" style="white-space: pre;" direction="ltr" dominant-baseline="text-before-edge">effect1</text></g><g stroke-linecap="round" transform="translate(634.9052124023438 314.2143859863281) rotate(0 76.01300048828125 22.88037109375)"><path d="M11.44 0 M11.44 0 C62.93 2.32, 111.89 2.43, 140.59 0 M11.44 0 C39.4 -0.95, 67.26 -2.09, 140.59 0 M140.59 0 C149.16 -0.08, 151.36 1.9, 152.03 11.44 M140.59 0 C147.07 0.83, 151.64 1.72, 152.03 11.44 M152.03 11.44 C150.69 17.87, 151.58 23.37, 152.03 34.32 M152.03 11.44 C152.55 21.02, 153.04 29.2, 152.03 34.32 M152.03 34.32 C153.4 42.8, 147.68 44.39, 140.59 45.76 M152.03 34.32 C153.33 41.83, 149.1 46.3, 140.59 45.76 M140.59 45.76 C97.76 46.17, 54.71 45.62, 11.44 45.76 M140.59 45.76 C92.19 45.87, 45.52 45.15, 11.44 45.76 M11.44 45.76 C4.92 44.43, 0.57 42.31, 0 34.32 M11.44 45.76 C5.79 45.15, -0.37 42.19, 0 34.32 M0 34.32 C1.34 27.14, 1.54 16.63, 0 11.44 M0 34.32 C0.25 25.74, 0.5 16.24, 0 11.44 M0 11.44 C0.43 5.17, 4.11 -1.18, 11.44 0 M0 11.44 C0.52 4.79, 4.77 1.15, 11.44 0" stroke="#000000" stroke-width="1" fill="none"></path></g><g transform="translate(672.4682540893555 324.5947570800781) rotate(0 38.44995880126953 12.5)"><text x="38.44995880126953" y="0" font-family="Virgil, Segoe UI Emoji" font-size="20px" fill="#000000" text-anchor="middle" style="white-space: pre;" direction="ltr" dominant-baseline="text-before-edge">effect2</text></g><g stroke-linecap="round" transform="translate(631.6328735351562 367.1206970214844) rotate(0 76.01300048828125 22.88037109375)"><path d="M11.44 0 M11.44 0 C53.71 1.13, 93.42 -0.71, 140.59 0 M11.44 0 C42.84 -0.38, 75.79 -0.63, 140.59 0 M140.59 0 C146.94 0.92, 151.64 4.74, 152.03 11.44 M140.59 0 C150.29 0.71, 153.62 4.87, 152.03 11.44 M152.03 11.44 C153.62 20.64, 151.71 26.77, 152.03 34.32 M152.03 11.44 C152.25 19.97, 151.84 27.74, 152.03 34.32 M152.03 34.32 C152.69 42.39, 149.32 45.65, 140.59 45.76 M152.03 34.32 C153.58 39.91, 147.11 43.65, 140.59 45.76 M140.59 45.76 C93.55 44.44, 44.87 46.13, 11.44 45.76 M140.59 45.76 C90.85 46.44, 41.46 46.55, 11.44 45.76 M11.44 45.76 C5.28 47.46, 1.67 42.02, 0 34.32 M11.44 45.76 C5.88 44.28, 2.23 42.19, 0 34.32 M0 34.32 C0.35 28.03, 0.22 17.86, 0 11.44 M0 34.32 C0.4 26.8, -0.11 18.74, 0 11.44 M0 11.44 C2 3.26, 5.12 -0.31, 11.44 0 M0 11.44 C-1.67 4.34, 2.93 0.32, 11.44 0" stroke="#000000" stroke-width="1" fill="none"></path></g><g transform="translate(669.5059127807617 377.5010681152344) rotate(0 38.13996124267578 12.5)"><text x="38.13996124267578" y="0" font-family="Virgil, Segoe UI Emoji" font-size="20px" fill="#000000" text-anchor="middle" style="white-space: pre;" direction="ltr" dominant-baseline="text-before-edge">effect3</text></g></svg>