<svg version="1.1" xmlns="http://www.w3.org/2000/svg" viewBox="0 0 638.0943603515625 407.3408660888672" width="638.0943603515625" height="407.3408660888672">
  <!-- svg-source:excalidraw -->
  
  <defs>
    <style class="style-fonts">
      @font-face {
        font-family: "Virgil";
        src: url("https://excalidraw.com/Virgil.woff2");
      }
      @font-face {
        font-family: "Cascadia";
        src: url("https://excalidraw.com/Cascadia.woff2");
      }
    </style>
  </defs>
  <rect x="0" y="0" width="638.0943603515625" height="407.3408660888672" fill="#ffffff"></rect><g stroke-linecap="round" transform="translate(13.37799072265625 10) rotate(0 85.16372680664062 25.756629943847656)"><path d="M12.88 0 M12.88 0 C56.03 0, 99.18 0, 157.45 0 M12.88 0 C56.79 0, 100.7 0, 157.45 0 M157.45 0 C166.03 0, 170.33 4.29, 170.33 12.88 M157.45 0 C166.03 0, 170.33 4.29, 170.33 12.88 M170.33 12.88 C170.33 18.35, 170.33 23.81, 170.33 38.63 M170.33 12.88 C170.33 20.75, 170.33 28.62, 170.33 38.63 M170.33 38.63 C170.33 47.22, 166.03 51.51, 157.45 51.51 M170.33 38.63 C170.33 47.22, 166.03 51.51, 157.45 51.51 M157.45 51.51 C122.19 51.51, 86.92 51.51, 12.88 51.51 M157.45 51.51 C117.64 51.51, 77.83 51.51, 12.88 51.51 M12.88 51.51 C4.29 51.51, 0 47.22, 0 38.63 M12.88 51.51 C4.29 51.51, 0 47.22, 0 38.63 M0 38.63 C0 31.39, 0 24.15, 0 12.88 M0 38.63 C0 30.99, 0 23.35, 0 12.88 M0 12.88 C0 4.29, 4.29 0, 12.88 0 M0 12.88 C0 4.29, 4.29 0, 12.88 0" stroke="#000000" stroke-width="1" fill="none"></path></g><g transform="translate(63.5577392578125 25.756629943847656) rotate(0 34.983978271484375 10)"><text x="34.983978271484375" y="0" font-family="Virgil, Segoe UI Emoji" font-size="16px" fill="#000000" text-anchor="middle" style="white-space: pre;" direction="ltr" dominant-baseline="text-before-edge">WeakMap</text></g><g stroke-linecap="round"><g transform="translate(93.92222533076256 63.811270904484985) rotate(0 0.3886721724722406 16.822136402069077)"><path d="M0 0 C0.13 5.61, 0.65 28.04, 0.78 33.64 M0 0 C0.13 5.61, 0.65 28.04, 0.78 33.64" stroke="#000000" stroke-width="1" fill="none"></path></g><g transform="translate(93.92222533076256 63.811270904484985) rotate(0 0.3886721724722406 16.822136402069077)"><path d="M-5.34 17.97 C-4.02 21.36, -2.7 24.74, 0.78 33.64 M-5.34 17.97 C-4.01 21.39, -2.67 24.82, 0.78 33.64" stroke="#000000" stroke-width="1" fill="none"></path></g><g transform="translate(93.92222533076256 63.811270904484985) rotate(0 0.3886721724722406 16.822136402069077)"><path d="M6.17 17.7 C5 21.15, 3.84 24.59, 0.78 33.64 M6.17 17.7 C4.99 21.19, 3.81 24.67, 0.78 33.64" stroke="#000000" stroke-width="1" fill="none"></path></g></g><mask></mask><g stroke-linecap="round" transform="translate(10 100.61222839355469) rotate(0 93.55136108398438 137.99508666992188)"><path d="M32 0 M32 0 C77.79 0, 123.58 0, 155.1 0 M32 0 C77.13 0, 122.27 0, 155.1 0 M155.1 0 C176.44 0, 187.1 10.67, 187.1 32 M155.1 0 C176.44 0, 187.1 10.67, 187.1 32 M187.1 32 C187.1 92.49, 187.1 152.98, 187.1 243.99 M187.1 32 C187.1 79.7, 187.1 127.41, 187.1 243.99 M187.1 243.99 C187.1 265.32, 176.44 275.99, 155.1 275.99 M187.1 243.99 C187.1 265.32, 176.44 275.99, 155.1 275.99 M155.1 275.99 C122.47 275.99, 89.84 275.99, 32 275.99 M155.1 275.99 C116.46 275.99, 77.83 275.99, 32 275.99 M32 275.99 C10.67 275.99, 0 265.32, 0 243.99 M32 275.99 C10.67 275.99, 0 265.32, 0 243.99 M0 243.99 C0 191.81, 0 139.63, 0 32 M0 243.99 C0 178, 0 112, 0 32 M0 32 C0 10.67, 10.67 0, 32 0 M0 32 C0 10.67, 10.67 0, 32 0" stroke="#000000" stroke-width="1" fill="none"></path></g><g stroke-linecap="round" transform="translate(20.393585205078125 121.11875915527344) rotate(0 79.2823486328125 22.5703125)"><path d="M11.29 0 M11.29 0 C43.51 0, 75.74 0, 147.28 0 M11.29 0 C43.65 0, 76.01 0, 147.28 0 M147.28 0 C154.8 0, 158.56 3.76, 158.56 11.29 M147.28 0 C154.8 0, 158.56 3.76, 158.56 11.29 M158.56 11.29 C158.56 18.98, 158.56 26.68, 158.56 33.86 M158.56 11.29 C158.56 16.31, 158.56 21.34, 158.56 33.86 M158.56 33.86 C158.56 41.38, 154.8 45.14, 147.28 45.14 M158.56 33.86 C158.56 41.38, 154.8 45.14, 147.28 45.14 M147.28 45.14 C115.68 45.14, 84.08 45.14, 11.29 45.14 M147.28 45.14 C111.23 45.14, 75.18 45.14, 11.29 45.14 M11.29 45.14 C3.76 45.14, 0 41.38, 0 33.86 M11.29 45.14 C3.76 45.14, 0 41.38, 0 33.86 M0 33.86 C0 27.9, 0 21.95, 0 11.29 M0 33.86 C0 28.34, 0 22.82, 0 11.29 M0 11.29 C0 3.76, 3.76 0, 11.29 0 M0 11.29 C0 3.76, 3.76 0, 11.29 0" stroke="#000000" stroke-width="1" fill="none"></path></g><g transform="translate(25.475990295410156 133.68907165527344) rotate(0 74.19994354248047 10)"><text x="74.19994354248047" y="0" font-family="Virgil, Segoe UI Emoji" font-size="16px" fill="#000000" text-anchor="middle" style="white-space: pre;" direction="ltr" dominant-baseline="text-before-edge">{flag:true,text:'a'}</text></g><g stroke-linecap="round" transform="translate(20.393585205078125 176.38450622558594) rotate(0 79.2823486328125 22.5703125)"><path d="M11.29 0 M11.29 0 C43.43 0, 75.58 0, 147.28 0 M11.29 0 C40.93 0, 70.57 0, 147.28 0 M147.28 0 C154.8 0, 158.56 3.76, 158.56 11.29 M147.28 0 C154.8 0, 158.56 3.76, 158.56 11.29 M158.56 11.29 C158.56 18.69, 158.56 26.09, 158.56 33.86 M158.56 11.29 C158.56 20.3, 158.56 29.32, 158.56 33.86 M158.56 33.86 C158.56 41.38, 154.8 45.14, 147.28 45.14 M158.56 33.86 C158.56 41.38, 154.8 45.14, 147.28 45.14 M147.28 45.14 C114.49 45.14, 81.7 45.14, 11.29 45.14 M147.28 45.14 C95.8 45.14, 44.33 45.14, 11.29 45.14 M11.29 45.14 C3.76 45.14, 0 41.38, 0 33.86 M11.29 45.14 C3.76 45.14, 0 41.38, 0 33.86 M0 33.86 C0 28.66, 0 23.47, 0 11.29 M0 33.86 C0 26.72, 0 19.58, 0 11.29 M0 11.29 C0 3.76, 3.76 0, 11.29 0 M0 11.29 C0 3.76, 3.76 0, 11.29 0" stroke="#000000" stroke-width="1" fill="none"></path></g><g transform="translate(67.77995300292969 188.95481872558594) rotate(0 31.895980834960938 10)"><text x="31.895980834960938" y="0" font-family="Virgil, Segoe UI Emoji" font-size="16px" fill="#000000" text-anchor="middle" style="white-space: pre;" direction="ltr" dominant-baseline="text-before-edge">target2</text></g><g stroke-linecap="round" transform="translate(20.393585205078125 232.3679962158203) rotate(0 79.2823486328125 22.5703125)"><path d="M11.29 0 M11.29 0 C63.61 0, 115.94 0, 147.28 0 M11.29 0 C40.2 0, 69.12 0, 147.28 0 M147.28 0 C154.8 0, 158.56 3.76, 158.56 11.29 M147.28 0 C154.8 0, 158.56 3.76, 158.56 11.29 M158.56 11.29 C158.56 19.11, 158.56 26.94, 158.56 33.86 M158.56 11.29 C158.56 18.38, 158.56 25.47, 158.56 33.86 M158.56 33.86 C158.56 41.38, 154.8 45.14, 147.28 45.14 M158.56 33.86 C158.56 41.38, 154.8 45.14, 147.28 45.14 M147.28 45.14 C93.24 45.14, 39.2 45.14, 11.29 45.14 M147.28 45.14 C105.56 45.14, 63.84 45.14, 11.29 45.14 M11.29 45.14 C3.76 45.14, 0 41.38, 0 33.86 M11.29 45.14 C3.76 45.14, 0 41.38, 0 33.86 M0 33.86 C0 26.07, 0 18.28, 0 11.29 M0 33.86 C0 26.78, 0 19.7, 0 11.29 M0 11.29 C0 3.76, 3.76 0, 11.29 0 M0 11.29 C0 3.76, 3.76 0, 11.29 0" stroke="#000000" stroke-width="1" fill="none"></path></g><g transform="translate(68.0279541015625 244.9383087158203) rotate(0 31.647979736328125 10)"><text x="31.647979736328125" y="0" font-family="Virgil, Segoe UI Emoji" font-size="16px" fill="#000000" text-anchor="middle" style="white-space: pre;" direction="ltr" dominant-baseline="text-before-edge">target3</text></g><g stroke-linecap="round" transform="translate(20.393585205078125 291.85572814941406) rotate(0 79.2823486328125 22.5703125)"><path d="M11.29 0 M11.29 0 C60.2 0, 109.11 0, 147.28 0 M11.29 0 C59.7 0, 108.11 0, 147.28 0 M147.28 0 C154.8 0, 158.56 3.76, 158.56 11.29 M147.28 0 C154.8 0, 158.56 3.76, 158.56 11.29 M158.56 11.29 C158.56 18.23, 158.56 25.18, 158.56 33.86 M158.56 11.29 C158.56 17.04, 158.56 22.8, 158.56 33.86 M158.56 33.86 C158.56 41.38, 154.8 45.14, 147.28 45.14 M158.56 33.86 C158.56 41.38, 154.8 45.14, 147.28 45.14 M147.28 45.14 C112.28 45.14, 77.27 45.14, 11.29 45.14 M147.28 45.14 C106.33 45.14, 65.38 45.14, 11.29 45.14 M11.29 45.14 C3.76 45.14, 0 41.38, 0 33.86 M11.29 45.14 C3.76 45.14, 0 41.38, 0 33.86 M0 33.86 C0 27.73, 0 21.61, 0 11.29 M0 33.86 C0 29.28, 0 24.71, 0 11.29 M0 11.29 C0 3.76, 3.76 0, 11.29 0 M0 11.29 C0 3.76, 3.76 0, 11.29 0" stroke="#000000" stroke-width="1" fill="none"></path></g><g transform="translate(68.35595703125 304.42604064941406) rotate(0 31.319976806640625 10)"><text x="31.319976806640625" y="0" font-family="Virgil, Segoe UI Emoji" font-size="16px" fill="#000000" text-anchor="middle" style="white-space: pre;" direction="ltr" dominant-baseline="text-before-edge">target4</text></g><g stroke-linecap="round"><g transform="translate(183.97515869140625 143.56956481933594) rotate(0 42.02166748046875 -23.669158935546875)"><path d="M0 0 C14.01 -7.89, 70.04 -39.45, 84.04 -47.34 M0 0 C14.01 -7.89, 70.04 -39.45, 84.04 -47.34" stroke="#000000" stroke-width="1" fill="none"></path></g><g transform="translate(183.97515869140625 143.56956481933594) rotate(0 42.02166748046875 -23.669158935546875)"><path d="M64.52 -24.56 C70.37 -31.39, 76.22 -38.22, 84.04 -47.34 M64.52 -24.56 C69.13 -29.95, 73.75 -35.33, 84.04 -47.34" stroke="#000000" stroke-width="1" fill="none"></path></g><g transform="translate(183.97515869140625 143.56956481933594) rotate(0 42.02166748046875 -23.669158935546875)"><path d="M54.45 -42.44 C63.32 -43.91, 72.19 -45.38, 84.04 -47.34 M54.45 -42.44 C61.44 -43.6, 68.44 -44.76, 84.04 -47.34" stroke="#000000" stroke-width="1" fill="none"></path></g></g><mask></mask><g stroke-linecap="round" transform="translate(267.3399658203125 70.56703186035156) rotate(0 66.79437255859375 27.775314331054688)"><path d="M13.89 0 M13.89 0 C53.37 0, 92.86 0, 119.7 0 M13.89 0 C52.49 0, 91.09 0, 119.7 0 M119.7 0 C128.96 0, 133.59 4.63, 133.59 13.89 M119.7 0 C128.96 0, 133.59 4.63, 133.59 13.89 M133.59 13.89 C133.59 24.9, 133.59 35.92, 133.59 41.66 M133.59 13.89 C133.59 21.52, 133.59 29.15, 133.59 41.66 M133.59 41.66 C133.59 50.92, 128.96 55.55, 119.7 55.55 M133.59 41.66 C133.59 50.92, 128.96 55.55, 119.7 55.55 M119.7 55.55 C80.06 55.55, 40.42 55.55, 13.89 55.55 M119.7 55.55 C89.24 55.55, 58.78 55.55, 13.89 55.55 M13.89 55.55 C4.63 55.55, 0 50.92, 0 41.66 M13.89 55.55 C4.63 55.55, 0 50.92, 0 41.66 M0 41.66 C0 31.15, 0 20.65, 0 13.89 M0 41.66 C0 34.08, 0 26.51, 0 13.89 M0 13.89 C0 4.63, 4.63 0, 13.89 0 M0 13.89 C0 4.63, 4.63 0, 13.89 0" stroke="#000000" stroke-width="1" fill="none"></path></g><g transform="translate(318.7263488769531 88.34234619140625) rotate(0 15.407989501953125 10)"><text x="15.407989501953125" y="0" font-family="Virgil, Segoe UI Emoji" font-size="16px" fill="#000000" text-anchor="middle" style="white-space: pre;" direction="ltr" dominant-baseline="text-before-edge">Map</text></g><g stroke-linecap="round" transform="translate(249.1646728515625 146.04930114746094) rotate(0 95.79974365234375 125.64578247070312)"><path d="M32 0 M32 0 C74.52 0, 117.04 0, 159.6 0 M32 0 C64.18 0, 96.36 0, 159.6 0 M159.6 0 C180.93 0, 191.6 10.67, 191.6 32 M159.6 0 C180.93 0, 191.6 10.67, 191.6 32 M191.6 32 C191.6 102.92, 191.6 173.85, 191.6 219.29 M191.6 32 C191.6 74.9, 191.6 117.8, 191.6 219.29 M191.6 219.29 C191.6 240.62, 180.93 251.29, 159.6 251.29 M191.6 219.29 C191.6 240.62, 180.93 251.29, 159.6 251.29 M159.6 251.29 C111.21 251.29, 62.82 251.29, 32 251.29 M159.6 251.29 C110.61 251.29, 61.63 251.29, 32 251.29 M32 251.29 C10.67 251.29, 0 240.62, 0 219.29 M32 251.29 C10.67 251.29, 0 240.62, 0 219.29 M0 219.29 C0 161.88, 0 104.46, 0 32 M0 219.29 C0 149.86, 0 80.42, 0 32 M0 32 C0 10.67, 10.67 0, 32 0 M0 32 C0 10.67, 10.67 0, 32 0" stroke="#000000" stroke-width="1" fill="none"></path></g><g stroke-linecap="round" transform="translate(261.282958984375 160.64056396484375) rotate(0 80.2095109641125 22.834259569133735)"><path d="M11.42 0 M11.42 0 C57.04 0, 102.66 0, 149 0 M11.42 0 C56.47 0, 101.51 0, 149 0 M149 0 C156.61 0, 160.42 3.81, 160.42 11.42 M149 0 C156.61 0, 160.42 3.81, 160.42 11.42 M160.42 11.42 C160.42 16.91, 160.42 22.4, 160.42 34.25 M160.42 11.42 C160.42 19.23, 160.42 27.05, 160.42 34.25 M160.42 34.25 C160.42 41.86, 156.61 45.67, 149 45.67 M160.42 34.25 C160.42 41.86, 156.61 45.67, 149 45.67 M149 45.67 C115.29 45.67, 81.57 45.67, 11.42 45.67 M149 45.67 C112.58 45.67, 76.16 45.67, 11.42 45.67 M11.42 45.67 C3.81 45.67, 0 41.86, 0 34.25 M11.42 45.67 C3.81 45.67, 0 41.86, 0 34.25 M0 34.25 C0 26.04, 0 17.83, 0 11.42 M0 34.25 C0 26.65, 0 19.04, 0 11.42 M0 11.42 C0 3.81, 3.81 0, 11.42 0 M0 11.42 C0 3.81, 3.81 0, 11.42 0" stroke="#000000" stroke-width="1" fill="none"></path></g><g transform="translate(325.97437302465937 173.35000756512827) rotate(0 15.518096923828125 10.12481596884922)"><text x="15.518096923828125" y="0" font-family="Virgil, Segoe UI Emoji" font-size="16.199705550158743px" fill="#000000" text-anchor="middle" style="white-space: pre;" direction="ltr" dominant-baseline="text-before-edge">flag</text></g><g stroke-linecap="round" transform="translate(261.282958984375 216.55261276282152) rotate(0 80.2095109641125 22.834259569133735)"><path d="M11.42 0 M11.42 0 C62.58 0, 113.73 0, 149 0 M11.42 0 C61.24 0, 111.07 0, 149 0 M149 0 C156.61 0, 160.42 3.81, 160.42 11.42 M149 0 C156.61 0, 160.42 3.81, 160.42 11.42 M160.42 11.42 C160.42 20.02, 160.42 28.62, 160.42 34.25 M160.42 11.42 C160.42 16.91, 160.42 22.41, 160.42 34.25 M160.42 34.25 C160.42 41.86, 156.61 45.67, 149 45.67 M160.42 34.25 C160.42 41.86, 156.61 45.67, 149 45.67 M149 45.67 C113.01 45.67, 77.02 45.67, 11.42 45.67 M149 45.67 C112.68 45.67, 76.36 45.67, 11.42 45.67 M11.42 45.67 C3.81 45.67, 0 41.86, 0 34.25 M11.42 45.67 C3.81 45.67, 0 41.86, 0 34.25 M0 34.25 C0 29.1, 0 23.94, 0 11.42 M0 34.25 C0 26.88, 0 19.51, 0 11.42 M0 11.42 C0 3.81, 3.81 0, 11.42 0 M0 11.42 C0 3.81, 3.81 0, 11.42 0" stroke="#000000" stroke-width="1" fill="none"></path></g><g transform="translate(323.52158371801875 229.26205636310604) rotate(0 17.97088623046875 10.12481596884922)"><text x="17.97088623046875" y="0" font-family="Virgil, Segoe UI Emoji" font-size="16.199705550158743px" fill="#000000" text-anchor="middle" style="white-space: pre;" direction="ltr" dominant-baseline="text-before-edge">test</text></g><g stroke-linecap="round" transform="translate(261.282958984375 273.1907980791751) rotate(0 80.2095109641125 22.83425956913375)"><path d="M11.42 0 M11.42 0 C58.17 0, 104.93 0, 149 0 M11.42 0 C62.85 0, 114.28 0, 149 0 M149 0 C156.61 0, 160.42 3.81, 160.42 11.42 M149 0 C156.61 0, 160.42 3.81, 160.42 11.42 M160.42 11.42 C160.42 17.84, 160.42 24.26, 160.42 34.25 M160.42 11.42 C160.42 16.94, 160.42 22.47, 160.42 34.25 M160.42 34.25 C160.42 41.86, 156.61 45.67, 149 45.67 M160.42 34.25 C160.42 41.86, 156.61 45.67, 149 45.67 M149 45.67 C118.37 45.67, 87.74 45.67, 11.42 45.67 M149 45.67 C96.54 45.67, 44.07 45.67, 11.42 45.67 M11.42 45.67 C3.81 45.67, 0 41.86, 0 34.25 M11.42 45.67 C3.81 45.67, 0 41.86, 0 34.25 M0 34.25 C0 27.43, 0 20.61, 0 11.42 M0 34.25 C0 25.46, 0 16.68, 0 11.42 M0 11.42 C0 3.81, 3.81 0, 11.42 0 M0 11.42 C0 3.81, 3.81 0, 11.42 0" stroke="#000000" stroke-width="1" fill="none"></path></g><g transform="translate(323.81299607153437 285.9002416794596) rotate(0 17.679473876953125 10.12481596884922)"><text x="17.679473876953125" y="0" font-family="Virgil, Segoe UI Emoji" font-size="16.199705550158743px" fill="#000000" text-anchor="middle" style="white-space: pre;" direction="ltr" dominant-baseline="text-before-edge">key3</text></g><g stroke-linecap="round" transform="translate(261.282958984375 333.37420547110753) rotate(0 80.2095109641125 22.834259569133735)"><path d="M11.42 0 M11.42 0 C54.59 0, 97.76 0, 149 0 M11.42 0 C53.74 0, 96.07 0, 149 0 M149 0 C156.61 0, 160.42 3.81, 160.42 11.42 M149 0 C156.61 0, 160.42 3.81, 160.42 11.42 M160.42 11.42 C160.42 20.5, 160.42 29.57, 160.42 34.25 M160.42 11.42 C160.42 17.72, 160.42 24.02, 160.42 34.25 M160.42 34.25 C160.42 41.86, 156.61 45.67, 149 45.67 M160.42 34.25 C160.42 41.86, 156.61 45.67, 149 45.67 M149 45.67 C116.32 45.67, 83.63 45.67, 11.42 45.67 M149 45.67 C117.26 45.67, 85.52 45.67, 11.42 45.67 M11.42 45.67 C3.81 45.67, 0 41.86, 0 34.25 M11.42 45.67 C3.81 45.67, 0 41.86, 0 34.25 M0 34.25 C0 28.47, 0 22.68, 0 11.42 M0 34.25 C0 27, 0 19.75, 0 11.42 M0 11.42 C0 3.81, 3.81 0, 11.42 0 M0 11.42 C0 3.81, 3.81 0, 11.42 0" stroke="#000000" stroke-width="1" fill="none"></path></g><g transform="translate(324.14489762182734 346.0836490713921) rotate(0 17.347572326660156 10.12481596884922)"><text x="17.347572326660156" y="0" font-family="Virgil, Segoe UI Emoji" font-size="16.199705550158743px" fill="#000000" text-anchor="middle" style="white-space: pre;" direction="ltr" dominant-baseline="text-before-edge">key4</text></g><g stroke-linecap="round"><g transform="translate(337.6724853515625 126.14216613769531) rotate(0 0.5198974609375 8.006820678710938)"><path d="M0 0 C0.17 2.67, 0.87 13.34, 1.04 16.01 M0 0 C0.17 2.67, 0.87 13.34, 1.04 16.01" stroke="#000000" stroke-width="1" fill="none"></path></g><g transform="translate(337.6724853515625 126.14216613769531) rotate(0 0.5198974609375 8.006820678710938)"><path d="M-2.19 8.67 C-1.38 10.5, -0.57 12.34, 1.04 16.01 M-2.19 8.67 C-1.15 11.02, -0.12 13.38, 1.04 16.01" stroke="#000000" stroke-width="1" fill="none"></path></g><g transform="translate(337.6724853515625 126.14216613769531) rotate(0 0.5198974609375 8.006820678710938)"><path d="M3.29 8.31 C2.73 10.24, 2.16 12.16, 1.04 16.01 M3.29 8.31 C2.57 10.78, 1.85 13.25, 1.04 16.01" stroke="#000000" stroke-width="1" fill="none"></path></g></g><mask></mask><g stroke-linecap="round"><g transform="translate(425.0777587890625 181.62425231933594) rotate(0 26.92486572265625 0)"><path d="M0 0 C8.97 0, 44.87 0, 53.85 0 M0 0 C8.97 0, 44.87 0, 53.85 0" stroke="#000000" stroke-width="1" fill="none"></path></g><g transform="translate(425.0777587890625 181.62425231933594) rotate(0 26.92486572265625 0)"><path d="M28.55 9.21 C34.15 7.17, 39.74 5.13, 53.85 0 M28.55 9.21 C37.55 5.93, 46.55 2.66, 53.85 0" stroke="#000000" stroke-width="1" fill="none"></path></g><g transform="translate(425.0777587890625 181.62425231933594) rotate(0 26.92486572265625 0)"><path d="M28.55 -9.21 C34.15 -7.17, 39.74 -5.13, 53.85 0 M28.55 -9.21 C37.55 -5.93, 46.55 -2.66, 53.85 0" stroke="#000000" stroke-width="1" fill="none"></path></g></g><mask></mask><g stroke-linecap="round" transform="translate(476.6346435546875 143.1896514892578) rotate(0 75.7298583984375 30.189453125)"><path d="M15.09 0 M15.09 0 C61.3 0, 107.51 0, 136.36 0 M15.09 0 C61.89 0, 108.69 0, 136.36 0 M136.36 0 C146.43 0, 151.46 5.03, 151.46 15.09 M136.36 0 C146.43 0, 151.46 5.03, 151.46 15.09 M151.46 15.09 C151.46 26.23, 151.46 37.37, 151.46 45.28 M151.46 15.09 C151.46 21.78, 151.46 28.47, 151.46 45.28 M151.46 45.28 C151.46 55.35, 146.43 60.38, 136.36 60.38 M151.46 45.28 C151.46 55.35, 146.43 60.38, 136.36 60.38 M136.36 60.38 C108.12 60.38, 79.88 60.38, 15.09 60.38 M136.36 60.38 C87.98 60.38, 39.59 60.38, 15.09 60.38 M15.09 60.38 C5.03 60.38, 0 55.35, 0 45.28 M15.09 60.38 C5.03 60.38, 0 55.35, 0 45.28 M0 45.28 C0 35.01, 0 24.73, 0 15.09 M0 45.28 C0 37.82, 0 30.36, 0 15.09 M0 15.09 C0 5.03, 5.03 0, 15.09 0 M0 15.09 C0 5.03, 5.03 0, 15.09 0" stroke="#000000" stroke-width="1" fill="none"></path></g><g transform="translate(527.3005218505859 163.3791046142578) rotate(0 25.063980102539062 10)"><text x="25.063980102539062" y="0" font-family="Virgil, Segoe UI Emoji" font-size="16px" fill="#000000" text-anchor="middle" style="white-space: pre;" direction="ltr" dominant-baseline="text-before-edge">effect</text></g><g stroke-linecap="round"><g transform="translate(422.6324462890625 238.75794982910156) rotate(0 26.92486572265625 0)"><path d="M0 0 C8.97 0, 44.87 0, 53.85 0 M0 0 C8.97 0, 44.87 0, 53.85 0" stroke="#000000" stroke-width="1" fill="none"></path></g><g transform="translate(422.6324462890625 238.75794982910156) rotate(0 26.92486572265625 0)"><path d="M28.55 9.21 C36.98 6.14, 45.42 3.07, 53.85 0 M28.55 9.21 C38.17 5.71, 47.8 2.2, 53.85 0" stroke="#000000" stroke-width="1" fill="none"></path></g><g transform="translate(422.6324462890625 238.75794982910156) rotate(0 26.92486572265625 0)"><path d="M28.55 -9.21 C36.98 -6.14, 45.42 -3.07, 53.85 0 M28.55 -9.21 C38.17 -5.71, 47.8 -2.2, 53.85 0" stroke="#000000" stroke-width="1" fill="none"></path></g></g><mask></mask><g stroke-linecap="round" transform="translate(474.1893310546875 208.7808380126953) rotate(0 75.7298583984375 30.189453125)"><path d="M15.09 0 M15.09 0 C43.64 0, 72.18 0, 136.36 0 M15.09 0 C50.63 0, 86.18 0, 136.36 0 M136.36 0 C146.43 0, 151.46 5.03, 151.46 15.09 M136.36 0 C146.43 0, 151.46 5.03, 151.46 15.09 M151.46 15.09 C151.46 21.76, 151.46 28.42, 151.46 45.28 M151.46 15.09 C151.46 26.91, 151.46 38.73, 151.46 45.28 M151.46 45.28 C151.46 55.35, 146.43 60.38, 136.36 60.38 M151.46 45.28 C151.46 55.35, 146.43 60.38, 136.36 60.38 M136.36 60.38 C103.46 60.38, 70.56 60.38, 15.09 60.38 M136.36 60.38 C103.78 60.38, 71.2 60.38, 15.09 60.38 M15.09 60.38 C5.03 60.38, 0 55.35, 0 45.28 M15.09 60.38 C5.03 60.38, 0 55.35, 0 45.28 M0 45.28 C0 37.75, 0 30.21, 0 15.09 M0 45.28 C0 38.1, 0 30.92, 0 15.09 M0 15.09 C0 5.03, 5.03 0, 15.09 0 M0 15.09 C0 5.03, 5.03 0, 15.09 0" stroke="#000000" stroke-width="1" fill="none"></path></g><g transform="translate(524.8552093505859 228.9702911376953) rotate(0 25.063980102539062 10)"><text x="25.063980102539062" y="0" font-family="Virgil, Segoe UI Emoji" font-size="16px" fill="#000000" text-anchor="middle" style="white-space: pre;" direction="ltr" dominant-baseline="text-before-edge">effect</text></g></svg>