<svg version="1.1" xmlns="http://www.w3.org/2000/svg" viewBox="0 0 441.65128326416016 465.14400482177734" width="441.65128326416016" height="465.14400482177734">
  <!-- svg-source:excalidraw -->
  
  <defs>
    <style class="style-fonts">
      @font-face {
        font-family: "Virgil";
        src: url("https://excalidraw.com/Virgil.woff2");
      }
      @font-face {
        font-family: "Cascadia";
        src: url("https://excalidraw.com/Cascadia.woff2");
      }
    </style>
  </defs>
  <rect x="0" y="0" width="441.65128326416016" height="465.14400482177734" fill="#ffffff"></rect><g stroke-linecap="round"><g transform="translate(217.07019805908203 14.741065979003906) rotate(0 4.555419921875 201.70275115966797)"><path d="M0 0 C1.52 67.23, 7.59 336.17, 9.11 403.41 M0 0 C1.52 67.23, 7.59 336.17, 9.11 403.41" stroke="#000000" stroke-width="1" fill="none"></path></g><g transform="translate(217.07019805908203 14.741065979003906) rotate(0 4.555419921875 201.70275115966797)"><path d="M-1.78 375.45 C1.83 384.72, 5.44 393.99, 9.11 403.41 M-1.78 375.45 C2.09 385.4, 5.97 395.35, 9.11 403.41" stroke="#000000" stroke-width="1" fill="none"></path></g><g transform="translate(217.07019805908203 14.741065979003906) rotate(0 4.555419921875 201.70275115966797)"><path d="M18.73 374.99 C15.54 384.41, 12.35 393.83, 9.11 403.41 M18.73 374.99 C15.31 385.11, 11.88 395.22, 9.11 403.41" stroke="#000000" stroke-width="1" fill="none"></path></g></g><mask></mask><g transform="translate(217.11774444580078 435.14400482177734) rotate(0 16 10)"><text x="0" y="0" font-family="Virgil, Segoe UI Emoji" font-size="16px" fill="#000000" text-anchor="start" style="white-space: pre;" direction="ltr" dominant-baseline="text-before-edge">时间</text></g><g stroke-linecap="round"><g transform="translate(387.0323257446289 10) rotate(0 7.626721868199752 201.702751159668)"><path d="M0 0 C2.54 67.23, 12.71 336.17, 15.25 403.41 M0 0 C2.54 67.23, 12.71 336.17, 15.25 403.41" stroke="#000000" stroke-width="1" fill="none"></path></g><g transform="translate(387.0323257446289 10) rotate(0 7.626721868199752 201.702751159668)"><path d="M3.93 375.62 C8.25 386.22, 12.57 396.82, 15.25 403.41 M3.93 375.62 C8.33 386.41, 12.72 397.19, 15.25 403.41" stroke="#000000" stroke-width="1" fill="none"></path></g><g transform="translate(387.0323257446289 10) rotate(0 7.626721868199752 201.702751159668)"><path d="M24.44 374.85 C20.94 385.74, 17.43 396.64, 15.25 403.41 M24.44 374.85 C20.88 385.93, 17.31 397.02, 15.25 403.41" stroke="#000000" stroke-width="1" fill="none"></path></g></g><mask></mask><g transform="translate(383.65128326416016 427.8483123779297) rotate(0 24 10)"><text x="0" y="0" font-family="Virgil, Segoe UI Emoji" font-size="16px" fill="#000000" text-anchor="start" style="white-space: pre;" direction="ltr" dominant-baseline="text-before-edge">服务端</text></g><g stroke-linecap="round"><g transform="translate(34.33698272705078 37.100730895996094) rotate(0 90.30249794794247 -2.932943202685564)"><path d="M1.07 0 C31.33 -0.67, 150.54 -3.21, 180.43 -3.95 M0.18 -1.04 C30.37 -2.09, 149.58 -5.51, 179.49 -5.87" stroke="#000000" stroke-width="1" fill="none"></path></g><g transform="translate(34.33698272705078 37.100730895996094) rotate(0 90.30249794794247 -2.932943202685564)"><path d="M151.53 5.02 C158 2.45, 163 -0.27, 177.65 -7.36 M152.09 5.13 C158.09 1.99, 166.18 -0.79, 178.82 -5.84" stroke="#000000" stroke-width="1" fill="none"></path></g><g transform="translate(34.33698272705078 37.100730895996094) rotate(0 90.30249794794247 -2.932943202685564)"><path d="M151.09 -15.5 C157.66 -13.79, 162.75 -12.23, 177.65 -7.36 M151.65 -15.39 C157.75 -13.32, 165.95 -10.92, 178.82 -5.84" stroke="#000000" stroke-width="1" fill="none"></path></g></g><mask></mask><g transform="translate(74.09925079345703 16.525978088378906) rotate(0 51.11998748779297 10)"><text x="0" y="0" font-family="Virgil, Segoe UI Emoji" font-size="16px" fill="#000000" text-anchor="start" style="white-space: pre;" direction="ltr" dominant-baseline="text-before-edge">第一次修改obj</text></g><g stroke-linecap="round"><g transform="translate(225.41632843017578 37.15117645263672) rotate(0 82.43104591968466 -2.1864344808273017)"><path d="M0.24 -0.88 C28.07 -1.41, 138.5 -3.3, 165.95 -4.11 M-1.09 1.28 C26.77 0.52, 138.06 -4.66, 165.62 -5.65" stroke="#000000" stroke-width="1" fill="none"></path></g><g transform="translate(225.41632843017578 37.15117645263672) rotate(0 82.43104591968466 -2.1864344808273017)"><path d="M136.42 7.73 C145.81 3.57, 149.11 2.63, 164.68 -3.98 M138.85 5.15 C147.26 1.42, 158.46 -2.05, 165.64 -5.14" stroke="#000000" stroke-width="1" fill="none"></path></g><g transform="translate(225.41632843017578 37.15117645263672) rotate(0 82.43104591968466 -2.1864344808273017)"><path d="M135.57 -12.77 C144.98 -12.51, 148.46 -9.03, 164.68 -3.98 M137.99 -15.36 C146.87 -11.74, 158.39 -7.88, 165.64 -5.14" stroke="#000000" stroke-width="1" fill="none"></path></g></g><mask></mask><g transform="translate(269.68079376220703 18.34626007080078) rotate(0 37.24799346923828 10)"><text x="0" y="0" font-family="Virgil, Segoe UI Emoji" font-size="16px" fill="#000000" text-anchor="start" style="white-space: pre;" direction="ltr" dominant-baseline="text-before-edge">发送请求A</text></g><g stroke-linecap="round"><g transform="translate(38.17253662833946 115.38442837326787) rotate(0 90.38558914436027 -2.006115944422781)"><path d="M-0.81 -1.12 C29.29 -1.87, 149.1 -2.97, 179.4 -3.33 M0.97 0.91 C31.54 0.35, 151.65 -3.92, 181.58 -4.92" stroke="#000000" stroke-width="1" fill="none"></path></g><g transform="translate(38.17253662833946 115.38442837326787) rotate(0 90.38558914436027 -2.006115944422781)"><path d="M151.89 4.6 C160.9 5.18, 166.51 2.82, 180.37 -3.2 M154.68 5.35 C163.09 2.38, 171.77 -1.72, 181.46 -5.65" stroke="#000000" stroke-width="1" fill="none"></path></g><g transform="translate(38.17253662833946 115.38442837326787) rotate(0 90.38558914436027 -2.006115944422781)"><path d="M151.19 -15.91 C160.54 -11.22, 166.29 -9.46, 180.37 -3.2 M153.98 -15.16 C162.82 -11.37, 171.73 -8.72, 181.46 -5.65" stroke="#000000" stroke-width="1" fill="none"></path></g></g><mask></mask><g transform="translate(77.93480469474571 94.80967556565068) rotate(0 51.11998748779297 10)"><text x="0" y="0" font-family="Virgil, Segoe UI Emoji" font-size="16px" fill="#000000" text-anchor="start" style="white-space: pre;" direction="ltr" dominant-baseline="text-before-edge">第二次修改obj</text></g><g stroke-linecap="round"><g transform="translate(229.25188233146446 115.43487392990849) rotate(0 82.33991788251325 -2.457400002703075)"><path d="M0.56 1.03 C28.28 -0.12, 137.74 -4.97, 165.28 -5.95 M-0.6 0.53 C27.09 0.04, 136.9 -3.53, 164.6 -4.79" stroke="#000000" stroke-width="1" fill="none"></path></g><g transform="translate(229.25188233146446 115.43487392990849) rotate(0 82.33991788251325 -2.457400002703075)"><path d="M138.54 7.36 C141.48 5.68, 149.26 3.51, 164.44 -2.94 M136.61 5.87 C142.35 3.55, 148.44 2.94, 165.21 -3.9" stroke="#000000" stroke-width="1" fill="none"></path></g><g transform="translate(229.25188233146446 115.43487392990849) rotate(0 82.33991788251325 -2.457400002703075)"><path d="M137.76 -13.15 C141.05 -10.42, 148.99 -8.17, 164.44 -2.94 M135.83 -14.63 C141.8 -12.76, 148.04 -9.17, 165.21 -3.9" stroke="#000000" stroke-width="1" fill="none"></path></g></g><mask></mask><g transform="translate(273.5163476634957 96.62995754807255) rotate(0 37.81599426269531 10)"><text x="0" y="0" font-family="Virgil, Segoe UI Emoji" font-size="16px" fill="#000000" text-anchor="start" style="white-space: pre;" direction="ltr" dominant-baseline="text-before-edge">发送请求B</text></g><g stroke-linecap="round"><g transform="translate(230.30211139669893 262.4017032194706) rotate(180.52728469229498 82.18953497074546 -2.910633843820534)"><path d="M-0.8 0.17 C26.91 -0.72, 137.41 -3.42, 165.18 -4.34 M0.98 -0.78 C28.66 -1.49, 137 -5.44, 164.44 -5.99" stroke="#000000" stroke-width="1" fill="none"></path></g><g transform="translate(230.30211139669893 262.4017032194706) rotate(180.52728469229498 82.18953497074546 -2.910633843820534)"><path d="M136.85 5.75 C143.85 4.65, 148.07 2.02, 162.68 -7.3 M135.92 5.9 C141.75 2.78, 149.25 0.26, 163.9 -6.34" stroke="#000000" stroke-width="1" fill="none"></path></g><g transform="translate(230.30211139669893 262.4017032194706) rotate(180.52728469229498 82.18953497074546 -2.910633843820534)"><path d="M136.25 -14.76 C143.56 -11.51, 147.9 -9.79, 162.68 -7.3 M135.32 -14.61 C141.15 -13.34, 148.78 -11.45, 163.9 -6.34" stroke="#000000" stroke-width="1" fill="none"></path></g></g><mask></mask><g stroke-linecap="round"><g transform="translate(225.79220262994374 184.66867334141335) rotate(180.52728469229498 82.88566472677519 -3.2051682975143194)"><path d="M1.04 -0.13 C28.58 -1.33, 138.49 -5.26, 165.65 -6.28 M0.12 -1.25 C27.55 -2.41, 137.43 -4.59, 165.16 -5.29" stroke="#000000" stroke-width="1" fill="none"></path></g><g transform="translate(225.79220262994374 184.66867334141335) rotate(180.52728469229498 82.88566472677519 -3.2051682975143194)"><path d="M136.99 7.05 C144.68 0.42, 154.04 -3.11, 164.7 -6.58 M137.87 5.46 C147.43 1.1, 157.88 -2.43, 164.72 -5.14" stroke="#000000" stroke-width="1" fill="none"></path></g><g transform="translate(225.79220262994374 184.66867334141335) rotate(180.52728469229498 82.88566472677519 -3.2051682975143194)"><path d="M136.52 -13.47 C144.52 -13.26, 154.03 -9.96, 164.7 -6.58 M137.41 -15.06 C146.96 -11.59, 157.6 -7.29, 164.72 -5.14" stroke="#000000" stroke-width="1" fill="none"></path></g></g><mask></mask><g transform="translate(274.53845977783203 168.5663070678711) rotate(0 37.81599426269531 10)"><text x="0" y="0" font-family="Virgil, Segoe UI Emoji" font-size="16px" fill="#000000" text-anchor="start" style="white-space: pre;" direction="ltr" dominant-baseline="text-before-edge">返回请求B</text></g><g transform="translate(278.46289825439453 246.4946517944336) rotate(0 37.24799346923828 10)"><text x="0" y="0" font-family="Virgil, Segoe UI Emoji" font-size="16px" fill="#000000" text-anchor="start" style="white-space: pre;" direction="ltr" dominant-baseline="text-before-edge">返回请求A</text></g><g stroke-linecap="round"><g transform="translate(213.01929473876953 189.6675033569336) rotate(0 -86.3373247418553 0.7882481429167143)"><path d="M1.17 -0.61 C-27.98 -0.31, -144.66 0.7, -173.84 1.04 M0.32 1.69 C-28.52 2.18, -142.83 2.04, -171.46 2.19" stroke="#000000" stroke-width="1" fill="none"></path></g><g transform="translate(213.01929473876953 189.6675033569336) rotate(0 -86.3373247418553 0.7882481429167143)"><path d="M-144.3 -9.17 C-155.49 -5.1, -165.73 0.88, -171.86 0.99 M-143.1 -8.25 C-153.78 -4.17, -163.19 -1.19, -172.24 1.31" stroke="#000000" stroke-width="1" fill="none"></path></g><g transform="translate(213.01929473876953 189.6675033569336) rotate(0 -86.3373247418553 0.7882481429167143)"><path d="M-144.27 11.35 C-155.34 7.49, -165.59 5.53, -171.86 0.99 M-143.06 12.27 C-153.81 9.05, -163.23 4.73, -172.24 1.31" stroke="#000000" stroke-width="1" fill="none"></path></g></g><mask></mask><g stroke-linecap="round"><g transform="translate(285.231256175844 260.6255272657413) rotate(0 -121.4291128928316 2.30981129682678)"><path d="M0.72 1.03 C-39.65 1.61, -202.31 2.26, -243.01 2.55 M-0.36 0.52 C-40.76 1.39, -202.95 3.49, -243.58 4.1" stroke="#000000" stroke-width="1" fill="none"></path></g><g transform="translate(285.231256175844 260.6255272657413) rotate(0 -121.4291128928316 2.30981129682678)"><path d="M-213.82 -5.34 C-222.12 -3.51, -228.32 -0.84, -242.32 3.04 M-215.17 -7.06 C-224.68 -2.54, -233.25 0.4, -243.65 4.79" stroke="#000000" stroke-width="1" fill="none"></path></g><g transform="translate(285.231256175844 260.6255272657413) rotate(0 -121.4291128928316 2.30981129682678)"><path d="M-213.53 15.18 C-221.74 12.23, -228 10.11, -242.32 3.04 M-214.88 13.46 C-224.61 11.29, -233.27 7.53, -243.65 4.79" stroke="#000000" stroke-width="1" fill="none"></path></g></g><mask></mask><g transform="translate(17.15625762939453 154.96556854248047) rotate(0 100.06397247314453 10)"><text x="0" y="0" font-family="Virgil, Segoe UI Emoji" font-size="16px" fill="#000000" text-anchor="start" style="white-space: pre;" direction="ltr" dominant-baseline="text-before-edge">将B的结果设置给finalData</text></g><g transform="translate(10 232.96297454833984) rotate(0 99.4959716796875 10)"><text x="0" y="0" font-family="Virgil, Segoe UI Emoji" font-size="16px" fill="#000000" text-anchor="start" style="white-space: pre;" direction="ltr" dominant-baseline="text-before-edge">将A的结果设置给finalData</text></g></svg>